# xmcd
#
# Track frame offsets: 
#        150
#        15649
#        23967
#        30846
#        47184
#        56483
#        70555
#        89976
#        100798
#        115730
#        129685
#
# Disc length: 1900 seconds
#
# Revision: 0
# Processed by: cddbd v1.5.2PL0 Copyright (c) Steve Scherf et al.
# Submitted via: ExactAudioCopy v0.95b4
#
DISCID=8b076a0b
DTITLE=Elizabeth Keeny - Minnesota Christmas
DYEAR=1900
DGENRE=Christmas
TTITLE0=Minnesota Christmas
TTITLE1=Let It Snow
TTITLE2=Jingle Bells
TTITLE3=Chestnuts
TTITLE4=Winter Wonderland
TTITLE5=Silver Bells
TTITLE6=Oh Holy Night
TTITLE7=Blue Christmas
TTITLE8=I'll Be Home For Christmas
TTITLE9=White Christmas
TTITLE10=I'm Here With You (This Christmas Night)
EXTD=
EXTT0=
EXTT1=
EXTT2=
EXTT3=
EXTT4=
EXTT5=
EXTT6=
EXTT7=
EXTT8=
EXTT9=
EXTT10=
PLAYORDER=
